<svg width="49" height="50" viewBox="0 0 49 50" fill="none" xmlns="http://www.w3.org/2000/svg">
<rect y="0.795166" width="48.4098" height="48.4098" rx="16" fill="#49B356"/>
<path d="M39.2148 12.2676C39.1975 11.9716 39.0721 11.6921 38.8624 11.4824C38.6527 11.2727 38.3732 11.1473 38.0772 11.13C26.5602 10.4538 17.3351 13.9211 13.4018 20.4262C12.0384 22.6514 11.3666 25.2314 11.4715 27.8389C11.5577 30.2473 12.2596 32.6799 13.5576 35.0777L10.6061 38.0277C10.379 38.2548 10.2515 38.5628 10.2515 38.8839C10.2515 39.2051 10.379 39.5131 10.6061 39.7402C10.8332 39.9673 11.1412 40.0949 11.4624 40.0949C11.7835 40.0949 12.0915 39.9673 12.3186 39.7402L15.2686 36.7887C17.6649 38.0852 20.099 38.7871 22.5059 38.8734C22.6743 38.8794 22.8422 38.8824 23.0096 38.8824C25.4479 38.8889 27.8399 38.2175 29.9186 36.943C36.4237 33.0097 39.8925 23.7861 39.2148 12.2676ZM28.6705 34.8735C25.2289 36.9581 21.1549 36.9914 17.0658 34.99L30.4738 21.5835C30.5863 21.4711 30.6754 21.3376 30.7363 21.1906C30.7972 21.0437 30.8285 20.8863 30.8285 20.7272C30.8285 20.5682 30.7972 20.4108 30.7363 20.2638C30.6754 20.1169 30.5863 19.9834 30.4738 19.871C30.3614 19.7586 30.2279 19.6694 30.081 19.6085C29.934 19.5477 29.7766 19.5163 29.6176 19.5163C29.4585 19.5163 29.3011 19.5477 29.1542 19.6085C29.0072 19.6694 28.8738 19.7586 28.7613 19.871L15.3548 33.285C13.3594 29.2005 13.3882 25.1159 15.4713 21.6803C18.8131 16.1631 26.7568 13.142 36.8488 13.5021C37.2103 23.5865 34.1877 31.5317 28.6705 34.8735Z" fill="white"/>
</svg>
